<svg xmlns="http://www.w3.org/2000/svg" width="640" height="110" viewBox="0 0 640 110" version="1.1"><path d="M 134.037 21.174 C 126.070 23.460, 121 30.194, 121 38.492 C 121 45.160, 122.804 48.534, 131.346 57.834 C 135.556 62.418, 139 67.015, 139 68.049 C 139 72.251, 132.058 73.154, 123.820 70.024 C 120.960 68.937, 118.453 68.214, 118.249 68.418 C 118.045 68.622, 118.190 72.630, 118.571 77.326 L 119.264 85.864 126.314 87.053 C 139.526 89.281, 148.960 86.798, 154.067 79.748 C 160.521 70.839, 158.773 62.179, 148.329 51.320 C 138.967 41.585, 138.295 40.437, 140.523 37.974 C 142.651 35.623, 145.962 35.482, 152.544 37.463 C 155.219 38.268, 157.505 38.828, 157.626 38.708 C 157.746 38.587, 157.593 34.814, 157.285 30.323 L 156.725 22.157 150.531 21.079 C 143.180 19.799, 138.741 19.824, 134.037 21.174 M 188.746 21.086 C 172.049 25.021, 162.127 39.351, 163.205 57.975 C 164.040 72.408, 171.177 82.121, 183.814 86.024 C 197.531 90.261, 211.542 87.299, 220.201 78.332 C 232.111 65.998, 232.187 39.795, 220.343 28.879 C 212.113 21.294, 200.263 18.371, 188.746 21.086 M 316.340 20.958 C 307.978 22.950, 301.978 30.262, 302.022 38.407 C 302.055 44.484, 304.890 49.684, 312.854 58.273 C 320.085 66.072, 321.792 70.098, 318.418 71.393 C 315.426 72.541, 310.011 71.996, 304.820 70.024 C 301.960 68.937, 299.540 68.149, 299.444 68.274 C 299.030 68.806, 300.573 84.906, 301.087 85.420 C 302.043 86.376, 312.011 88, 316.886 87.994 C 329.773 87.979, 338.912 80.004, 338.978 68.718 C 339.012 62.847, 336.869 59.014, 328.624 50.197 C 324.418 45.700, 321 41.154, 321 40.058 C 321 36.061, 326.742 34.939, 334.030 37.511 C 336.385 38.342, 338.516 38.817, 338.765 38.568 C 339.014 38.319, 338.902 34.543, 338.516 30.177 L 337.813 22.239 332.240 21.119 C 326.048 19.876, 321.092 19.825, 316.340 20.958 M 544.929 21.367 C 529.570 25.509, 520 38.531, 520 55.290 C 520 73.950, 530.826 86.201, 548.604 87.657 C 554.230 88.117, 566.458 86.875, 567.607 85.726 C 567.983 85.351, 569.929 69.595, 569.636 69.302 C 569.510 69.177, 566.953 69.727, 563.953 70.525 C 548.374 74.671, 539.012 69.112, 539.004 55.710 C 538.994 41.295, 549.140 33.770, 564.348 36.911 C 567.573 37.577, 570.284 37.982, 570.373 37.811 C 570.461 37.640, 570.380 34.053, 570.191 29.839 L 569.848 22.179 563.592 21.089 C 555.743 19.723, 550.754 19.797, 544.929 21.367 M 28.324 43.571 C 27.403 63.572, 27.058 66.447, 25.293 68.821 C 22.827 72.139, 18.785 72.674, 11.754 70.613 C 8.904 69.777, 6.389 69.277, 6.165 69.502 C 5.940 69.726, 6.071 73.265, 6.455 77.366 L 7.154 84.822 14.170 86.542 C 26.416 89.543, 38.093 86.870, 43.258 79.883 C 45.682 76.603, 46.608 68.092, 47.461 41.250 L 48.105 21 38.734 21 L 29.363 21 28.324 43.571 M 73.830 25.716 C 70.277 33.858, 47.827 83.399, 46.852 85.250 C 46 86.866, 46.759 87, 56.725 87 L 67.521 87 71 78 L 74.479 69 83.591 69 L 92.703 69 94.332 75.250 C 95.228 78.688, 96.244 82.737, 96.589 84.250 L 97.217 87 107.108 87 C 113.102 87, 117 86.602, 117 85.990 C 117 85.434, 113.652 74.297, 109.561 61.240 C 105.470 48.183, 101.066 33.900, 99.776 29.500 L 97.430 21.500 86.674 21.216 L 75.918 20.932 73.830 25.716 M 236.632 42.750 C 236.258 54.712, 235.669 69.563, 235.324 75.750 L 234.695 87 243.231 87 C 253.489 87, 252.942 87.948, 253.044 70 C 253.102 59.871, 254.427 45.965, 254.885 50.686 C 254.948 51.338, 258.560 59.663, 262.912 69.186 L 270.823 86.500 281.759 86.781 L 292.696 87.063 293.367 66.781 C 293.736 55.627, 294.322 40.763, 294.668 33.750 L 295.299 21 286.650 21 C 281.892 21, 277.932 21.113, 277.849 21.250 C 277.766 21.387, 277.429 29.990, 277.099 40.368 L 276.500 59.235 268 40.120 L 259.500 21.004 248.406 21.002 L 237.313 21 236.632 42.750 M 349.644 38.750 C 349.275 48.513, 348.318 62.800, 347.516 70.500 C 346.715 78.200, 346.046 85.063, 346.030 85.750 C 346.006 86.726, 353.328 87, 379.387 87 L 412.774 87 416.110 78 L 419.445 69 428.613 69 L 437.781 69 439.890 76.818 C 441.051 81.118, 442 85.168, 442 85.818 C 442 86.651, 445.051 87, 452.336 87 L 462.672 87 454.040 59.250 C 449.292 43.988, 444.732 29.250, 443.906 26.500 L 442.405 21.500 431.663 21.216 L 420.920 20.932 418.413 26.716 C 417.035 29.897, 410.640 44.150, 404.203 58.388 L 392.500 84.276 392.210 77.312 L 391.919 70.348 378.308 70.810 L 364.696 71.271 365.334 68.886 C 365.685 67.574, 365.979 65.487, 365.986 64.250 C 366 62.056, 366.268 62, 376.864 62 L 387.728 62 388.364 57.360 C 388.714 54.809, 389 51.209, 389 49.360 L 389 46 378 46 C 366.086 46, 366.413 46.185, 367.625 40.125 L 368.250 37 380.508 37 C 394.567 37, 393.961 37.461, 393.986 26.750 L 394 21 372.158 21 L 350.316 21 349.644 38.750 M 467.974 26.672 C 467.932 35.977, 466.163 72.953, 465.407 80.336 L 464.716 87.079 474.108 86.789 L 483.500 86.500 484.117 67 C 484.456 56.275, 484.794 44.913, 484.867 41.750 L 485 36 489.418 36 C 491.848 36, 494.583 36.286, 495.495 36.636 C 498 37.598, 499.089 41.447, 497.856 44.984 C 496.615 48.543, 494.353 50, 490.066 50 C 488.240 50, 487 50.518, 487 51.282 C 487 51.986, 488.527 57.949, 490.392 64.532 C 492.258 71.114, 494.328 78.862, 494.992 81.750 L 496.199 87 506.096 87 L 515.992 87 514.123 82.250 C 506.014 61.642, 504.964 58.512, 506.041 58.153 C 508.952 57.183, 514.028 51.495, 515.558 47.488 C 517.860 41.461, 517.192 32.482, 514.121 28.170 C 509.817 22.125, 507.509 21.535, 486.750 21.172 L 468 20.844 467.974 26.672 M 577.621 46.750 C 577.259 60.913, 576.693 75.779, 576.361 79.786 L 575.758 87.073 586.129 86.786 L 596.500 86.500 596.780 73.750 L 597.060 61 606.679 61 L 616.299 61 615.613 74 L 614.926 87 624.858 87 L 634.789 87 635.373 71.750 C 635.694 63.362, 636.224 48.513, 636.551 38.750 L 637.145 21 627.572 21 L 618 21 618 33 L 618 45 607.440 45 L 596.880 45 597.581 33 L 598.283 21 588.280 21 L 578.277 21 577.621 46.750 M 131 24.173 C 127.736 25.861, 125.882 27.726, 124.250 30.962 C 119.861 39.665, 121.607 45.519, 131.802 56.291 C 140.241 65.207, 141.464 67.265, 139.974 70.048 C 138.279 73.216, 134.394 74.250, 128.742 73.038 C 126.050 72.461, 122.928 71.496, 121.805 70.896 C 119.824 69.835, 119.775 70.012, 120.161 76.848 C 120.380 80.722, 120.882 84.216, 121.277 84.610 C 121.672 85.005, 126.631 85.534, 132.298 85.786 C 141.344 86.189, 143.102 85.988, 146.716 84.145 C 152.532 81.178, 155.311 76.846, 155.808 69.976 C 156.328 62.783, 155.065 60.316, 146.019 50.864 C 137.959 42.442, 136.778 39.777, 139.775 36.780 C 142.054 34.501, 148.567 34.125, 153.469 35.988 L 156.278 37.056 155.750 30.472 C 155.459 26.851, 154.959 23.626, 154.639 23.306 C 154.319 22.986, 149.882 22.527, 144.779 22.286 C 136.520 21.895, 135.005 22.103, 131 24.173 M 186.500 23.399 C 176.703 26.497, 169.867 32.907, 166.564 42.092 C 164.347 48.257, 164.020 60.037, 165.881 66.708 C 167.601 72.875, 172.779 79.072, 179.036 82.451 C 183.574 84.902, 185.956 85.472, 193.098 85.816 C 204.368 86.359, 211.073 84.448, 217.379 78.898 C 235.083 63.314, 229.775 29.762, 208.612 23.477 C 202.623 21.699, 191.995 21.661, 186.500 23.399 M 311.985 24.290 C 306.523 27.178, 303.622 32.400, 303.774 39.071 C 303.919 45.417, 305.479 48.174, 314.459 57.955 C 323.511 67.815, 324.064 70.504, 317.549 72.981 C 314.471 74.152, 306.872 73.072, 302.783 70.884 C 300.758 69.800, 300.733 69.917, 301.445 77.140 C 301.843 81.188, 302.384 84.716, 302.647 84.980 C 302.910 85.243, 308.460 85.468, 314.981 85.480 C 328.069 85.502, 330.182 84.720, 334.613 78.213 C 340.306 69.855, 338.111 62.189, 326.553 50.055 C 322.399 45.695, 319 41.268, 319 40.218 C 319 35.469, 327.164 33.211, 334.395 35.960 C 335.899 36.532, 337.213 37, 337.315 37.001 C 337.417 37.001, 337.275 33.966, 337 30.257 C 336.515 23.720, 336.407 23.492, 333.500 22.874 C 331.850 22.523, 327.308 22.183, 323.407 22.118 C 317.787 22.025, 315.416 22.475, 311.985 24.290 M 480.407 22.781 L 469.315 23.063 468.622 46.781 C 468.241 59.827, 467.591 73.763, 467.176 77.750 L 466.423 85 474.096 85 L 481.770 85 482.410 66.750 C 482.762 56.712, 483.305 45.508, 483.616 41.850 C 484.171 35.334, 484.245 35.191, 487.274 34.747 C 491.585 34.114, 497.190 35.548, 498.799 37.695 C 500.541 40.019, 499.753 46.510, 497.416 49.093 C 496.452 50.158, 494.008 51.295, 491.985 51.618 L 488.308 52.206 491.507 63.353 C 493.267 69.484, 495.267 76.862, 495.953 79.750 L 497.199 85 505.100 85 C 509.445 85, 513 84.588, 513 84.085 C 513 83.582, 511.009 78.070, 508.576 71.835 C 506.142 65.601, 504.005 59.981, 503.826 59.346 C 503.647 58.711, 505.396 56.808, 507.714 55.116 C 513.354 50.998, 515.343 46.917, 515.361 39.421 C 515.371 34.883, 514.817 32.439, 513.172 29.778 C 509.243 23.421, 503.505 22.196, 480.407 22.781 M 544.500 22.873 C 528.557 27.083, 519.102 43.522, 522.059 61.888 C 524.655 78.007, 535.119 86.157, 552.865 85.882 C 557.064 85.817, 561.850 85.475, 563.500 85.122 C 566.339 84.515, 566.542 84.139, 567.286 78.110 C 567.718 74.606, 567.943 71.620, 567.786 71.476 C 567.629 71.331, 564.575 71.839, 561 72.604 C 548.935 75.189, 540.559 70.931, 537.876 60.848 C 535.427 51.649, 540.115 40.578, 548.237 36.377 C 551.362 34.762, 559.246 34.393, 565.518 35.569 L 569.314 36.282 568.655 29.972 C 568.292 26.501, 567.778 23.445, 567.513 23.180 C 566.647 22.314, 547.580 22.060, 544.500 22.873 M 29.982 36.750 C 29.972 44.313, 29.542 54.521, 29.025 59.435 C 28.230 66.991, 27.689 68.765, 25.519 70.935 C 23.396 73.057, 22.126 73.465, 18.167 73.297 C 15.534 73.186, 12.169 72.635, 10.690 72.072 L 8 71.050 8 77.050 C 8 82.656, 8.180 83.123, 10.750 84.172 C 12.262 84.789, 17.550 85.484, 22.500 85.716 C 30.441 86.087, 32.030 85.864, 36 83.818 C 43.705 79.849, 44.591 76.876, 45.390 52.330 C 45.762 40.873, 46.328 29.587, 46.647 27.250 L 47.227 23 38.614 23 L 30 23 29.982 36.750 M 75.444 25.176 C 75.064 26.373, 69.137 39.760, 62.273 54.926 C 55.409 70.092, 49.567 83.063, 49.290 83.750 C 48.909 84.694, 50.972 85, 57.724 85 L 66.663 85 70.122 76.250 L 73.581 67.500 83.236 67.214 C 94.407 66.884, 93.779 66.386, 96.521 77.750 L 98.270 85 106.635 85 C 111.236 85, 115 84.737, 115 84.416 C 115 84.095, 111.900 73.858, 108.111 61.666 C 104.322 49.475, 100.165 35.788, 98.872 31.250 L 96.523 23 86.329 23 C 76.738 23, 76.094 23.129, 75.444 25.176 M 238.610 32.250 C 238.292 37.337, 237.787 49.150, 237.487 58.500 C 237.186 67.850, 236.687 77.638, 236.376 80.250 L 235.812 85 243.297 85 L 250.781 85 251.508 65.619 C 251.908 54.959, 252.520 45.803, 252.867 45.271 C 253.215 44.739, 257.550 53.460, 262.499 64.652 L 271.498 85 281.164 85 L 290.829 85 291.392 77.750 C 291.702 73.763, 292.206 62.175, 292.513 52 C 292.820 41.825, 293.332 31.138, 293.651 28.250 L 294.230 23 286.615 23 L 279 23 278.901 35.750 C 278.846 42.763, 278.509 52.266, 278.151 56.870 L 277.500 65.240 268.137 44.120 L 258.775 23 248.981 23 L 239.187 23 238.610 32.250 M 351.626 31.750 C 351.303 36.563, 350.758 45.675, 350.413 52 C 350.069 58.325, 349.244 68.338, 348.581 74.250 L 347.374 85 368.551 85 L 389.728 85 390.364 80.360 C 391.646 71.007, 392.787 71.699, 377.449 72.521 L 363.898 73.247 364.199 66.873 L 364.500 60.500 375.750 60.217 L 387 59.934 387 53.967 L 387 48 376.452 48 L 365.905 48 366.202 41.750 L 366.500 35.500 379.251 35.500 L 392.003 35.500 392.001 29.250 L 392 23 372.106 23 L 352.212 23 351.626 31.750 M 420.439 25.250 C 420.056 26.488, 414.134 39.875, 407.279 55 C 400.425 70.125, 394.584 83.063, 394.301 83.750 C 393.911 84.696, 395.978 85, 402.788 85 L 411.791 85 415.290 76.250 L 418.789 67.500 428.430 67.213 L 438.071 66.927 439.425 70.213 C 440.170 72.021, 441.351 76.087, 442.049 79.250 L 443.318 85 451.732 85 C 458.408 85, 460.080 84.713, 459.823 83.609 C 459.645 82.843, 455.450 68.894, 450.500 52.610 L 441.500 23.003 431.317 23.002 C 421.630 23, 421.101 23.109, 420.439 25.250 M 579 38.841 C 579 47.554, 578.705 61.504, 578.344 69.841 L 577.688 85 586.216 85 L 594.743 85 595.464 71.967 L 596.185 58.934 606.842 59.217 L 617.500 59.500 617.124 72.250 L 616.748 85 625.374 85 L 634 85 634.100 69.750 C 634.154 61.362, 634.492 47.412, 634.850 38.748 L 635.500 22.997 627.750 22.998 L 620 23 620 30.360 C 620 34.409, 619.714 39.809, 619.364 42.360 L 618.728 47 606.913 47 L 595.097 47 595.588 38.250 C 595.858 33.438, 596.258 28.038, 596.476 26.250 L 596.874 23 587.937 23 L 579 23 579 38.841 M 193 35.103 C 186.463 36.472, 179.985 46.487, 180.006 55.193 C 180.025 63.195, 185.440 71.107, 192.044 72.783 C 203.049 75.577, 211.956 66.950, 211.956 53.500 C 211.956 40.434, 204.075 32.786, 193 35.103 M 81.887 44.249 C 80.024 49.336, 78.350 53.836, 78.167 54.249 C 77.983 54.662, 80.796 55, 84.417 55 C 88.037 55, 91.007 54.663, 91.016 54.250 C 91.060 52.222, 86.518 35, 85.940 35 C 85.574 35, 83.750 39.162, 81.887 44.249 M 426.972 44.203 C 425.063 49.264, 423.350 53.764, 423.167 54.203 C 422.983 54.641, 425.796 55, 429.417 55 C 433.038 55, 436.007 54.663, 436.016 54.250 C 436.056 52.401, 431.545 35, 431.026 35 C 430.706 35, 428.882 39.141, 426.972 44.203 M 190.389 37.846 C 184.891 41.302, 182.729 45.442, 182.279 53.377 C 181.802 61.793, 183.576 66.175, 188.898 69.730 C 199.125 76.562, 210.554 67.693, 210.457 53 C 210.388 42.486, 206.354 37.196, 197.736 36.321 C 194.692 36.011, 192.625 36.441, 190.389 37.846 M 82.858 45.784 L 80.258 52.500 84.233 52.813 C 86.419 52.985, 88.437 52.896, 88.717 52.617 C 89.255 52.078, 87.191 42.349, 86.100 40.284 C 85.745 39.611, 84.298 42.066, 82.858 45.784 M 427.871 46.063 L 425.243 53 429.621 53 C 432.030 53, 434 52.584, 434 52.076 C 434 50.321, 431.663 40.498, 431.082 39.813 C 430.762 39.435, 429.317 42.247, 427.871 46.063" stroke="none" fill="#555970" fill-rule="evenodd"/><path d="M 131 24.173 C 127.736 25.861, 125.882 27.726, 124.250 30.962 C 119.861 39.665, 121.607 45.519, 131.802 56.291 C 140.241 65.207, 141.464 67.265, 139.974 70.048 C 138.279 73.216, 134.394 74.250, 128.742 73.038 C 126.050 72.461, 122.928 71.496, 121.805 70.896 C 119.824 69.835, 119.775 70.012, 120.161 76.848 C 120.380 80.722, 120.882 84.216, 121.277 84.610 C 121.672 85.005, 126.631 85.534, 132.298 85.786 C 141.344 86.189, 143.102 85.988, 146.716 84.145 C 152.532 81.178, 155.311 76.846, 155.808 69.976 C 156.328 62.783, 155.065 60.316, 146.019 50.864 C 137.959 42.442, 136.778 39.777, 139.775 36.780 C 142.054 34.501, 148.567 34.125, 153.469 35.988 L 156.278 37.056 155.750 30.472 C 155.459 26.851, 154.959 23.626, 154.639 23.306 C 154.319 22.986, 149.882 22.527, 144.779 22.286 C 136.520 21.895, 135.005 22.103, 131 24.173 M 186.500 23.399 C 176.703 26.497, 169.867 32.907, 166.564 42.092 C 164.347 48.257, 164.020 60.037, 165.881 66.708 C 167.601 72.875, 172.779 79.072, 179.036 82.451 C 183.574 84.902, 185.956 85.472, 193.098 85.816 C 204.368 86.359, 211.073 84.448, 217.379 78.898 C 235.083 63.314, 229.775 29.762, 208.612 23.477 C 202.623 21.699, 191.995 21.661, 186.500 23.399 M 311.985 24.290 C 306.523 27.178, 303.622 32.400, 303.774 39.071 C 303.919 45.417, 305.479 48.174, 314.459 57.955 C 323.511 67.815, 324.064 70.504, 317.549 72.981 C 314.471 74.152, 306.872 73.072, 302.783 70.884 C 300.758 69.800, 300.733 69.917, 301.445 77.140 C 301.843 81.188, 302.384 84.716, 302.647 84.980 C 302.910 85.243, 308.460 85.468, 314.981 85.480 C 328.069 85.502, 330.182 84.720, 334.613 78.213 C 340.306 69.855, 338.111 62.189, 326.553 50.055 C 322.399 45.695, 319 41.268, 319 40.218 C 319 35.469, 327.164 33.211, 334.395 35.960 C 335.899 36.532, 337.213 37, 337.315 37.001 C 337.417 37.001, 337.275 33.966, 337 30.257 C 336.515 23.720, 336.407 23.492, 333.500 22.874 C 331.850 22.523, 327.308 22.183, 323.407 22.118 C 317.787 22.025, 315.416 22.475, 311.985 24.290 M 480.407 22.781 L 469.315 23.063 468.622 46.781 C 468.241 59.827, 467.591 73.763, 467.176 77.750 L 466.423 85 474.096 85 L 481.770 85 482.410 66.750 C 482.762 56.712, 483.305 45.508, 483.616 41.850 C 484.171 35.334, 484.245 35.191, 487.274 34.747 C 491.585 34.114, 497.190 35.548, 498.799 37.695 C 500.541 40.019, 499.753 46.510, 497.416 49.093 C 496.452 50.158, 494.008 51.295, 491.985 51.618 L 488.308 52.206 491.507 63.353 C 493.267 69.484, 495.267 76.862, 495.953 79.750 L 497.199 85 505.100 85 C 509.445 85, 513 84.588, 513 84.085 C 513 83.582, 511.009 78.070, 508.576 71.835 C 506.142 65.601, 504.005 59.981, 503.826 59.346 C 503.647 58.711, 505.396 56.808, 507.714 55.116 C 513.354 50.998, 515.343 46.917, 515.361 39.421 C 515.371 34.883, 514.817 32.439, 513.172 29.778 C 509.243 23.421, 503.505 22.196, 480.407 22.781 M 544.500 22.873 C 528.557 27.083, 519.102 43.522, 522.059 61.888 C 524.655 78.007, 535.119 86.157, 552.865 85.882 C 557.064 85.817, 561.850 85.475, 563.500 85.122 C 566.339 84.515, 566.542 84.139, 567.286 78.110 C 567.718 74.606, 567.943 71.620, 567.786 71.476 C 567.629 71.331, 564.575 71.839, 561 72.604 C 548.935 75.189, 540.559 70.931, 537.876 60.848 C 535.427 51.649, 540.115 40.578, 548.237 36.377 C 551.362 34.762, 559.246 34.393, 565.518 35.569 L 569.314 36.282 568.655 29.972 C 568.292 26.501, 567.778 23.445, 567.513 23.180 C 566.647 22.314, 547.580 22.060, 544.500 22.873 M 29.982 36.750 C 29.972 44.313, 29.542 54.521, 29.025 59.435 C 28.230 66.991, 27.689 68.765, 25.519 70.935 C 23.396 73.057, 22.126 73.465, 18.167 73.297 C 15.534 73.186, 12.169 72.635, 10.690 72.072 L 8 71.050 8 77.050 C 8 82.656, 8.180 83.123, 10.750 84.172 C 12.262 84.789, 17.550 85.484, 22.500 85.716 C 30.441 86.087, 32.030 85.864, 36 83.818 C 43.705 79.849, 44.591 76.876, 45.390 52.330 C 45.762 40.873, 46.328 29.587, 46.647 27.250 L 47.227 23 38.614 23 L 30 23 29.982 36.750 M 75.444 25.176 C 75.064 26.373, 69.137 39.760, 62.273 54.926 C 55.409 70.092, 49.567 83.063, 49.290 83.750 C 48.909 84.694, 50.972 85, 57.724 85 L 66.663 85 70.122 76.250 L 73.581 67.500 83.236 67.214 C 94.407 66.884, 93.779 66.386, 96.521 77.750 L 98.270 85 106.635 85 C 111.236 85, 115 84.737, 115 84.416 C 115 84.095, 111.900 73.858, 108.111 61.666 C 104.322 49.475, 100.165 35.788, 98.872 31.250 L 96.523 23 86.329 23 C 76.738 23, 76.094 23.129, 75.444 25.176 M 238.610 32.250 C 238.292 37.337, 237.787 49.150, 237.487 58.500 C 237.186 67.850, 236.687 77.638, 236.376 80.250 L 235.812 85 243.297 85 L 250.781 85 251.508 65.619 C 251.908 54.959, 252.520 45.803, 252.867 45.271 C 253.215 44.739, 257.550 53.460, 262.499 64.652 L 271.498 85 281.164 85 L 290.829 85 291.392 77.750 C 291.702 73.763, 292.206 62.175, 292.513 52 C 292.820 41.825, 293.332 31.138, 293.651 28.250 L 294.230 23 286.615 23 L 279 23 278.901 35.750 C 278.846 42.763, 278.509 52.266, 278.151 56.870 L 277.500 65.240 268.137 44.120 L 258.775 23 248.981 23 L 239.187 23 238.610 32.250 M 351.626 31.750 C 351.303 36.563, 350.758 45.675, 350.413 52 C 350.069 58.325, 349.244 68.338, 348.581 74.250 L 347.374 85 368.551 85 L 389.728 85 390.364 80.360 C 391.646 71.007, 392.787 71.699, 377.449 72.521 L 363.898 73.247 364.199 66.873 L 364.500 60.500 375.750 60.217 L 387 59.934 387 53.967 L 387 48 376.452 48 L 365.905 48 366.202 41.750 L 366.500 35.500 379.251 35.500 L 392.003 35.500 392.001 29.250 L 392 23 372.106 23 L 352.212 23 351.626 31.750 M 420.439 25.250 C 420.056 26.488, 414.134 39.875, 407.279 55 C 400.425 70.125, 394.584 83.063, 394.301 83.750 C 393.911 84.696, 395.978 85, 402.788 85 L 411.791 85 415.290 76.250 L 418.789 67.500 428.430 67.213 L 438.071 66.927 439.425 70.213 C 440.170 72.021, 441.351 76.087, 442.049 79.250 L 443.318 85 451.732 85 C 458.408 85, 460.080 84.713, 459.823 83.609 C 459.645 82.843, 455.450 68.894, 450.500 52.610 L 441.500 23.003 431.317 23.002 C 421.630 23, 421.101 23.109, 420.439 25.250 M 579 38.841 C 579 47.554, 578.705 61.504, 578.344 69.841 L 577.688 85 586.216 85 L 594.743 85 595.464 71.967 L 596.185 58.934 606.842 59.217 L 617.500 59.500 617.124 72.250 L 616.748 85 625.374 85 L 634 85 634.100 69.750 C 634.154 61.362, 634.492 47.412, 634.850 38.748 L 635.500 22.997 627.750 22.998 L 620 23 620 30.360 C 620 34.409, 619.714 39.809, 619.364 42.360 L 618.728 47 606.913 47 L 595.097 47 595.588 38.250 C 595.858 33.438, 596.258 28.038, 596.476 26.250 L 596.874 23 587.937 23 L 579 23 579 38.841 M 193 35.103 C 186.463 36.472, 179.985 46.487, 180.006 55.193 C 180.025 63.195, 185.440 71.107, 192.044 72.783 C 203.049 75.577, 211.956 66.950, 211.956 53.500 C 211.956 40.434, 204.075 32.786, 193 35.103 M 81.887 44.249 C 80.024 49.336, 78.350 53.836, 78.167 54.249 C 77.983 54.662, 80.796 55, 84.417 55 C 88.037 55, 91.007 54.663, 91.016 54.250 C 91.060 52.222, 86.518 35, 85.940 35 C 85.574 35, 83.750 39.162, 81.887 44.249 M 426.972 44.203 C 425.063 49.264, 423.350 53.764, 423.167 54.203 C 422.983 54.641, 425.796 55, 429.417 55 C 433.038 55, 436.007 54.663, 436.016 54.250 C 436.056 52.401, 431.545 35, 431.026 35 C 430.706 35, 428.882 39.141, 426.972 44.203" stroke="none" fill="#051ce2" fill-rule="evenodd"/></svg>